<?xml version="1.0" encoding="UTF-8"?>
<svg id="Layer_2" data-name="Layer 2" xmlns="http://www.w3.org/2000/svg" viewBox="0 0 365.9 93.92">
  <defs>
    <style>
      .cls-1 {
        fill: #231f20;
      }
    </style>
  </defs>
  <g id="Layer_1-2" data-name="Layer 1">
    <g>
      <g>
        <path class="cls-1" d="M279.99,55.15c-2.15,0-3.78-1.7-3.78-3.85s1.63-3.78,3.78-3.78,3.7,1.63,3.7,3.78-1.63,3.85-3.7,3.85Z"/>
        <path class="cls-1" d="M325.18,54.78h-5.18v-7.11c-2.44,5.11-7.77,7.77-13.77,7.77-9.18,0-16.43-5.63-16.43-17.47V14.36h5.11v23.02c0,8.96,4.89,13.55,12.29,13.55s12.81-4.74,12.81-14.58V14.36h5.18v40.42Z"/>
        <path class="cls-1" d="M337.03,0h5.18v32.43l16.29-18.06h7.26l-19.18,20.14,19.32,20.28h-7.03l-16.66-18.14v18.14h-5.18V0Z"/>
        <g>
          <path class="cls-1" d="M5.18,56.96H0V16.59h5.18v7.17c2.22-4.96,6.88-7.91,13.83-7.91v5.4h-1.41c-6.73,0-12.42,3.03-12.42,13.16,0,0,0,22.55,0,22.55Z"/>
          <path class="cls-1" d="M44.21,57.55c-11.46,0-19.81-7.99-19.81-20.78s8.21-20.78,19.81-20.78,19.08,8.43,19.08,18.7c0,1.63,0,2.67-.15,4.06H29.65c.44,9.46,7.02,14.42,14.56,14.42,6.88,0,11.54-3.62,13.01-9.02h5.47c-1.85,7.61-8.36,13.39-18.48,13.39h0ZM29.65,34.56h28.39c.22-9.39-6.58-14.12-14.05-14.12s-13.75,4.73-14.34,14.12Z"/>
          <path class="cls-1" d="M74.24,20.95h-5.62v-4.36h5.62V6.46h5.25v10.13h11.09v4.36h-11.09v25.06c0,4.96,1.7,6.51,6.35,6.51h4.73v4.43h-5.54c-7.02,0-10.79-2.89-10.79-10.94v-25.06h0Z"/>
          <path class="cls-1" d="M167.11,15.33c6.58,0,11.09,3.11,13.53,6.51v-5.84h10.43v40.96h-10.43v-5.99c-2.44,3.55-7.1,6.66-13.61,6.66-10.35,0-18.64-8.5-18.64-21.29s8.28-21,18.71-21h0ZM169.77,24.43c-5.54,0-10.79,4.14-10.79,11.91s5.25,12.2,10.79,12.2,10.87-4.29,10.87-12.05-5.18-12.05-10.87-12.05Z"/>
          <path class="cls-1" d="M211.55,56.96h-10.35V16h10.35v6.35c2.59-4.21,6.88-6.95,12.57-6.95v10.87h-2.74c-6.14,0-9.84,2.36-9.84,10.28v20.41h0Z"/>
          <path class="cls-1" d="M259.76,34.34c0-6.58-3.62-10.13-9.09-10.13s-9.24,3.55-9.24,10.13v22.63h-10.35V16h10.35v5.1c2.67-3.48,7.1-5.69,12.35-5.69,9.54,0,16.34,6.21,16.34,17.52v24.03h-10.35v-22.63h0Z"/>
          <path class="cls-1" d="M125.52,35.65h-15.56c-1.21,0-1.35.15-1.27,1.34.4,6.22,4.59,11.01,10.75,11.91,4.67.68,8.59-.94,11.64-4.6.42-.5.42-.88-.07-1.33-1.07-1-2.12-2.04-3.15-3.09-.19-.2-.4-.62-.31-.82.09-.21.52-.38.79-.38,4.38-.02,8.76-.01,13.14-.02.64,0,.9.25.9.88,0,4.41,0,8.82-.02,13.22,0,.28-.18.71-.39.8-.21.09-.63-.1-.84-.29-.95-.89-1.87-1.81-2.77-2.76-.5-.52-.86-.5-1.36.04-4.51,4.93-10.14,7.35-16.79,7.04-9.96-.46-17.68-7.62-19.57-16.5-2.45-11.46,4.37-22.43,15.74-25.15,11.45-2.75,22.93,4.39,25.5,16.08.19.86.24,1.75.38,2.62.13.77-.17,1.03-.94,1.03-5.27-.02-10.53-.01-15.8-.01h0ZM130.83,28.4c-2.92-3.2-6.37-4.63-10.55-4.41-3.05.15-7.35,2.34-8.43,4.41h18.98,0Z"/>
        </g>
      </g>
      <g>
        <path class="cls-1" d="M83.66,85.19h-5.87l-1,2.86h-2.4l5.02-14.03h2.66l5.02,14.03h-2.42s-1-2.86-1-2.86ZM80.74,76.81l-2.3,6.51h4.57s-2.28-6.51-2.28-6.51Z"/>
        <g>
          <path class="cls-1" d="M223.17,74.04h2.42l-5.26,14.01h-2.66l-5.28-14.01h2.46l4.15,11.65,4.17-11.65h0Z"/>
          <path class="cls-1" d="M232.28,88.23c-3.19,0-5.54-2.26-5.54-5.75s2.26-5.73,5.54-5.73,5.4,2.2,5.4,5.46c0,.38-.02.74-.08,1.13h-8.48c.16,1.83,1.47,2.94,3.17,2.94,1.41,0,2.2-.68,2.62-1.55h2.48c-.62,1.94-2.38,3.49-5.1,3.49h0ZM229.14,81.5h6.15c-.04-1.71-1.39-2.8-3.1-2.8-1.55,0-2.8,1.05-3.05,2.8Z"/>
          <path class="cls-1" d="M247.82,81.84c0-2.04-1.11-3.09-2.78-3.09s-2.8,1.05-2.8,3.09v6.21h-2.3v-11.11h2.3v1.27c.74-.9,1.98-1.45,3.31-1.45,2.6,0,4.55,1.63,4.55,4.73v6.55h-2.28v-6.21h0Z"/>
          <path class="cls-1" d="M253.38,78.82h-1.31v-1.87h1.31v-2.76h2.32v2.76h2.7v1.87h-2.7v6.15c0,.82.32,1.17,1.29,1.17h1.41v1.92h-1.81c-1.98,0-3.21-.82-3.21-3.09v-6.15h0Z"/>
          <path class="cls-1" d="M270.56,88.05h-2.3v-1.33c-.72.94-1.98,1.49-3.29,1.49-2.6,0-4.57-1.63-4.57-4.73v-6.53h2.28v6.19c0,2.04,1.11,3.09,2.78,3.09s2.8-1.04,2.8-3.09v-6.19h2.3v11.11h0Z"/>
          <path class="cls-1" d="M275.89,88.05h-2.3v-11.11h2.3v1.61c.64-1.11,1.75-1.79,3.33-1.79v2.38h-.58c-1.69,0-2.74.7-2.74,3.07v5.85h0Z"/>
          <path class="cls-1" d="M286.11,88.23c-3.19,0-5.54-2.26-5.54-5.75s2.26-5.73,5.54-5.73,5.4,2.2,5.4,5.46c0,.38-.02.74-.08,1.13h-8.48c.16,1.83,1.47,2.94,3.17,2.94,1.41,0,2.2-.68,2.62-1.55h2.48c-.62,1.94-2.38,3.49-5.1,3.49h0ZM282.96,81.5h6.15c-.04-1.71-1.39-2.8-3.1-2.8-1.55,0-2.8,1.05-3.05,2.8Z"/>
        </g>
        <g>
          <g>
            <g>
              <path class="cls-1" d="M102.34,81.79c-1.15-2.32-2.38-4.67-2.56-7.27-.03-.41-.03-.82,0-1.23,0-.22.03-.44.06-.67.01-.13,0-.52.1-.62-2.67,2.9-5.44,6.82-5.44,9.04,0,3.25,6.03,10.25,8.84,12.12,2.81,1.87,6.88.06,3.62-3.57-.37-.41-4.43-5.14-4.63-7.81"/>
              <path class="cls-1" d="M103.34,68.9c-.95.68-1.83,1.45-2.63,2.3-.39,1.47-.4,3.02-.03,4.49.4,1.63.96,3.21,1.67,4.72.19-2.55,4.15-7.43,4.61-7.95,2.36-2.64.86-4.31-1.21-4.31-.78,0-1.64.23-2.41.75"/>
            </g>
            <g>
              <path class="cls-1" d="M110.84,89.6c-3.25,3.63.81,5.44,3.62,3.57.95-.68,1.83-1.45,2.64-2.3.39-1.47.4-3.02.03-4.49-.4-1.62-.96-3.21-1.67-4.72-.19,2.57-4.15,7.44-4.61,7.95"/>
              <path class="cls-1" d="M115.47,80.28c1.14,2.32,2.38,4.67,2.56,7.29.03.41.03.81,0,1.22,0,.22-.03.44-.06.67,0,.13,0,.52-.1.62,2.67-2.91,5.43-6.84,5.43-9.06,0-3.25-6.03-10.25-8.84-12.12-2.81-1.87-6.87-.06-3.62,3.56.37.41,4.42,5.14,4.63,7.81"/>
            </g>
          </g>
          <g>
            <g>
              <path class="cls-1" d="M134.92,75.3c.12.13.17.3.17.48v1.75c0,.37-.2.58-.62.62-.46.03-.92.15-1.34.33-.46.2-.86.49-1.21.86-.5.54-.74,1.33-.74,2.36v4.41c0,.17-.05.33-.17.46-.12.11-.29.17-.46.17h-1.84c-.17.01-.33-.05-.46-.17-.11-.12-.17-.29-.17-.46v-10.15c-.03-.32.21-.6.54-.62h1.94c.32-.03.6.21.62.54v.99c.39-.52.9-.93,1.49-1.21.57-.27,1.18-.44,1.8-.5.16-.02.33.03.45.15"/>
              <path class="cls-1" d="M139,86.42c-.93-.4-1.74-1.04-2.34-1.86-.67-.89-1-2.06-1-3.48-.02-1.09.26-2.17.82-3.11.54-.89,1.31-1.61,2.24-2.08.97-.5,2.06-.75,3.15-.74,1,0,1.98.22,2.87.67.88.44,1.64,1.11,2.19,1.94.34.49.59,1.03.72,1.61.12.61.17,1.23.17,1.85,0,.26-.07.52-.23.72-.15.19-.4.3-.64.29h-8.19c.12.67.54,1.25,1.14,1.57.6.33,1.28.5,1.97.5.5.01.98-.07,1.45-.25.4-.17.76-.4,1.08-.7.13-.13.31-.21.5-.23.13,0,.26.05.37.13l1.34.79c.19.07.32.25.33.46-.01.15-.07.29-.17.41-1.24,1.41-3.04,2.19-4.91,2.14-.98,0-1.94-.21-2.83-.61M139.74,78.49c-.52.36-.85.93-.92,1.55h5.69c-.05-.38-.19-.74-.42-1.06-.24-.33-.56-.62-.93-.8-.42-.21-.88-.32-1.34-.31-.74-.03-1.48.19-2.09.62"/>
              <path class="cls-1" d="M152.45,86.23c-.93-.52-1.71-1.27-2.27-2.17-1.12-1.82-1.13-4.12-.02-5.95.56-.91,1.34-1.66,2.28-2.18.94-.53,2.01-.8,3.09-.79,1.04-.01,2.06.23,2.99.7.91.48,1.68,1.18,2.26,2.03.07.1.11.21.13.33,0,.22-.14.39-.42.5l-1.63.64c-.09.04-.19.07-.29.07-.22-.02-.42-.14-.54-.33-.58-.79-1.51-1.25-2.48-1.23-.84-.03-1.65.31-2.23.91-.59.62-.9,1.45-.87,2.3,0,.58.13,1.14.41,1.64.25.49.64.89,1.1,1.17,1.39.77,3.13.44,4.15-.79.13-.19.33-.3.56-.31.1,0,.19.02.29.06l1.49.58c.27.11.41.28.41.5,0,.11-.04.22-.1.31-1.12,1.86-2.85,2.79-5.2,2.8-1.08,0-2.15-.27-3.1-.8"/>
              <path class="cls-1" d="M167.16,90.99h-2.11c-.36,0-.54-.15-.54-.44,0-.1.03-.19.07-.29l1.65-3.96-4.55-10.21c-.04-.1-.06-.21-.07-.31,0-.11.05-.23.13-.3.11-.08.25-.12.39-.11h2.28c.31-.02.6.17.7.48l2.7,6.77,2.46-6.75c.09-.32.4-.53.73-.5h2.26c.15,0,.29.03.42.13.1.08.15.21.15.33,0,.09-.03.18-.06.27l-5.89,14.41c-.1.3-.39.5-.71.48"/>
            </g>
            <g>
              <path class="cls-1" d="M175.68,71.24c.12-.11.29-.17.46-.17h1.86c.32-.03.6.21.62.53v8.58l3.58-4.43c.17-.23.46-.37.75-.35h2.32c.14-.01.29.03.4.1.09.06.13.16.13.27-.01.15-.08.29-.19.4l-3.92,4.53,4.16,5.26c.09.11.15.25.17.4,0,.11-.05.21-.15.27-.12.07-.25.11-.4.11h-2.3c-.3,0-.59-.13-.77-.37l-2.68-3.35-1.12,1.29v1.83c0,.17-.05.33-.17.46-.12.11-.29.17-.46.17h-1.86c-.17.01-.33-.05-.46-.17-.11-.12-.17-.29-.17-.46v-14.42c-.01-.17.04-.33.15-.46"/>
              <path class="cls-1" d="M196.36,86.57c-.11-.12-.17-.29-.17-.46v-.52c-.37.44-.85.78-1.39.98-.66.27-1.36.42-2.07.41-1.06.03-2.12-.24-3.05-.78-.86-.51-1.55-1.26-1.99-2.16-.46-.94-.69-1.97-.67-3.01-.01-1.04.22-2.08.69-3.01.45-.88,1.13-1.62,1.98-2.14.92-.54,1.98-.81,3.05-.79.7-.01,1.4.12,2.05.4.55.22,1.02.58,1.4,1.04v-.56c0-.17.05-.33.17-.46.12-.11.29-.17.46-.17h1.82c.17,0,.33.05.46.17.11.12.17.29.17.46v10.15c.03.31-.2.59-.52.62h-1.94c-.17,0-.33-.05-.45-.16M195.47,78.7c-1.29-1.19-3.26-1.19-4.55,0-.58.64-.89,1.48-.85,2.34-.03.86.28,1.69.87,2.31.59.6,1.41.93,2.26.9.85.05,1.68-.27,2.29-.86.58-.64.89-1.48.84-2.34.04-.87-.27-1.71-.86-2.36h0Z"/>
              <path class="cls-1" d="M202.1,86.57c-.11-.12-.17-.29-.17-.46v-14.42c0-.17.05-.33.17-.46.12-.11.29-.17.46-.17h1.86c.32-.03.6.21.62.53v14.5c0,.17-.05.33-.17.46-.12.11-.29.17-.46.17h-1.86c-.17.01-.33-.05-.46-.16"/>
            </g>
          </g>
        </g>
      </g>
    </g>
  </g>
</svg>